<svg id="visual" viewBox="0 0 900 600" width="900" height="600" xmlns="http://www.w3.org/2000/svg" xmlns:xlink="http://www.w3.org/1999/xlink" version="1.1"><rect x="0" y="0" width="900" height="600" fill="#FFFFFF"></rect><path d="M0 310L37.5 315.2C75 320.3 150 330.7 225 333.8C300 337 375 333 450 321.2C525 309.3 600 289.7 675 284.7C750 279.7 825 289.3 862.5 294.2L900 299L900 601L862.5 601C825 601 750 601 675 601C600 601 525 601 450 601C375 601 300 601 225 601C150 601 75 601 37.5 601L0 601Z" fill="#2F1A16" stroke-linecap="round" stroke-linejoin="miter"></path></svg>