<svg id="visual" viewBox="0 0 900 600" width="900" height="600" xmlns="http://www.w3.org/2000/svg" xmlns:xlink="http://www.w3.org/1999/xlink" version="1.1"><rect x="0" y="0" width="900" height="600" fill="#fff"></rect><path d="M767 600L721 585.7C675 571.3 583 542.7 517.8 514.2C452.7 485.7 414.3 457.3 436.3 428.8C458.3 400.3 540.7 371.7 573.5 343C606.3 314.3 589.7 285.7 547.8 257C506 228.3 439 199.7 436.3 171.2C433.7 142.7 495.3 114.3 567 85.8C638.7 57.3 720.3 28.7 761.2 14.3L802 0L900 0L900 14.3C900 28.7 900 57.3 900 85.8C900 114.3 900 142.7 900 171.2C900 199.7 900 228.3 900 257C900 285.7 900 314.3 900 343C900 371.7 900 400.3 900 428.8C900 457.3 900 485.7 900 514.2C900 542.7 900 571.3 900 585.7L900 600Z" fill="#2F1A16" stroke-linecap="round" stroke-linejoin="miter"></path></svg>